<?xml version="1.0" encoding="UTF-8" standalone="no"?>
<svg xmlns="http://www.w3.org/2000/svg" viewBox="0 0 1200 1200" xml:space="preserve">
  <path fill="#181623"
        d="M3 517c0-82.5.048-164.5-.028-246.5-.023-24.289 4.026-47.908 10.776-71.149 9.05-31.158 23.307-59.784 42.604-85.793 15.203-20.491 32.993-38.47 53.297-54.123 23.849-18.385 49.86-32.73 78.318-41.99 17.274-5.62 35.328-9.29 53.3-12.172 13.356-2.142 27.14-2.18 40.736-2.187 215.332-.121 430.665-.06 645.997-.121 24.461-.007 48.247 3.987 71.65 10.783 31.158 9.049 59.784 23.308 85.793 42.604 20.491 15.204 38.476 32.988 54.12 53.3 18.478 23.988 32.461 50.274 42.301 78.742 7.013 20.29 11.827 41.182 13.12 62.72.538 8.951.972 17.926.975 26.89.053 216.666.015 433.332.077 649.998.007 24.46-3.99 48.246-10.785 71.649-9.048 31.159-23.307 59.784-42.604 85.792-15.204 20.491-32.993 38.47-53.298 54.123-23.849 18.385-49.86 32.73-78.318 41.989-17.275 5.62-35.329 9.29-53.3 12.173-13.356 2.142-27.141 2.18-40.736 2.187-215.333.12-430.665.06-645.998.12-24.461.008-48.246-3.99-71.649-10.785-31.16-9.046-59.784-23.307-85.792-42.604-20.492-15.203-38.476-32.988-54.12-53.3-18.478-23.989-32.461-50.274-42.301-78.742-7.013-20.29-11.825-41.183-13.12-62.72-.537-8.951-.968-17.926-.972-26.89C2.982 786.496 3 651.998 3 517M243.02 31.377c-2.79.468-5.584.916-8.37 1.408C115.23 53.879 29.132 156.111 29.076 277.269c-.1 214.827-.112 429.653.152 644.48.018 15.242 1.413 30.7 4.18 45.687 21.685 117.465 123.93 202.416 243.513 202.482 214.993.12 429.987.106 644.98-.129 14.25-.015 28.664-1.393 42.723-3.779 117.916-20.012 205.137-122.934 205.26-242.584.225-215.993.082-431.986.037-647.98-.005-22.44-3.214-44.489-9.397-66.066-30.756-107.341-127.423-180.276-239.25-180.313-210.326-.069-420.653-.066-630.98.074-15.465.01-30.93 1.36-47.274 2.236"/>
    <path fill="#0ABDF5"
          d="M243.46 31.303c15.905-.802 31.369-2.152 46.834-2.162 210.327-.14 420.654-.143 630.98-.074 111.827.037 208.494 72.972 239.25 180.313 6.183 21.577 9.392 43.626 9.397 66.067.045 215.993.188 431.986-.036 647.98-.124 119.649-87.345 222.571-205.261 242.583-14.06 2.386-28.472 3.764-42.723 3.78-214.993.234-429.987.247-644.98.128-119.583-.066-221.828-85.017-243.513-202.482-2.767-14.986-4.162-30.445-4.18-45.688-.264-214.826-.251-429.652-.152-644.479.056-121.158 86.154-223.39 205.574-244.484 2.786-.492 5.58-.94 8.81-1.482m569.6 404.284c-.692-1.51-1.39-3.018-2.077-4.531-46.333-102.08-157.976-158.245-266.437-131.676-95.382 23.366-154.218 84.958-177.78 180.233-1.179 4.763-1.856 9.65-2.735 14.315-2.538 0-4.53.12-6.503-.018-39.313-2.768-76.78 4.202-111.431 23.068-69.334 37.75-107.25 96.723-111.534 175.21-3.631 66.516 21.626 122.475 71.78 166.383 38.444 33.658 83.787 50.25 134.97 50.42 31.997.104 63.994.078 95.99-.064 3.653-.016 6.006 1.076 8.49 3.793 47.593 52.052 106.738 75.622 176.863 68.887 53.453-5.134 98.105-29.033 133.864-69.202 2.187-2.457 4.321-3.495 7.622-3.47 19.664.15 39.329.051 58.994.08 24.435.037 48.522-2.794 72.141-9.077 57.577-15.319 104.225-46.553 135.615-97.615 41.173-66.974 47.94-138.6 21.9-212.434-23.17-65.701-68.728-110.617-134.024-135.02-32.153-12.017-65.532-17.442-99.93-15.728-2.53.126-4.676.155-5.778-3.554m-44.423-205.675c-18.288-2.947-23.742-11.905-17.978-29.541 3.307-10.115 6.63-20.224 9.933-30.34 3.911-11.981 7.81-23.967 11.861-36.403l-20.79-6.827c-.62.585-.986.765-1.074 1.035-7.862 24.017-16.263 47.877-23.353 72.12-4.91 16.79 2.233 32.01 17.511 40.674 4.583 2.6 9.62 4.65 14.695 6.087 23.872 6.762 41.772-2.874 49.597-26.43 3.775-11.361 7.455-22.753 11.185-34.13 3.609-11.005 7.226-22.008 10.937-33.309l-21.605-7.06c-3.237 9.79-6.374 19.225-9.475 28.674-4.407 13.428-8.712 26.89-13.206 40.29-2.81 8.38-7.26 15.097-18.238 15.16m-382.631 39.663c6.689-4.558 14.083-8.37 19.896-13.856 8.072-7.62 10.563-17.648 6.857-28.452-3.801-11.085-11.427-18.533-23.203-20.187-7.333-1.03-14.899-.69-22.349-.51-6.635.16-13.248 1.218-19.883 1.366-5.113.114-9.48-1.76-11.432-7.131-1.997-5.493-.026-10.035 4.08-13.379 10.651-8.672 21.962-10.656 30.649 1.821l19.8-9.452c-4.942-9.911-12.384-15.797-22.671-17.79-17.885-3.468-41.267 7.452-50.587 23.407-9.823 16.816-1.318 37.4 17.937 41.297 8.466 1.713 17.502.825 26.274.726 5.972-.067 11.943-1.234 17.903-1.149 6.664.095 10.842 3.765 12.393 9.651 1.256 4.768-.58 9.983-5.957 13.142-4.639 2.727-9.84 4.802-15.052 6.171-5.99 1.574-11.089-.896-14.88-5.83-.979-1.276-1.933-2.57-3.05-4.06l-20.083 9.59c4.644 9.614 11.636 15.567 21.39 18.005 10.732 2.681 21.138.99 31.968-3.38m437.741-14.885c1.181 3.619 1.779 7.574 3.64 10.8 9.83 17.028 24.795 26.92 44.273 28.648 21.3 1.889 36.906-18.618 29.083-38.611-3.3-8.435-9.71-15.701-15.009-23.288-3.701-5.3-8.16-10.075-11.816-15.402-2.656-3.871-2.605-8.222.454-12.102 3.088-3.916 7.252-5.12 12.044-4.249 14.46 2.63 20.686 12.153 16.995 26.319l19.143 10.83c6.153-11.204 6.245-22.08-.266-32.203-10.959-17.041-27.092-25.358-47.332-24.294-16.338.858-27.747 17.008-24.238 33.046 2.455 11.218 9.711 19.49 16.837 27.898 3.972 4.685 7.919 9.45 11.297 14.563 3.1 4.691 2.07 9.661-1.31 13.936-3.11 3.933-7.336 4.754-12.148 3.701-15.915-3.483-22.66-14.26-18.198-29.917l-19.33-10.944c-3.563 6.942-5.37 13.38-4.119 21.269m-233.384-46.535c1.158 2.76 2.225 5.564 3.523 8.256.444.92 1.504 2.255 2.226 2.22 7.359-.356 14.706-.955 22.612-1.527-1.113-2.553-1.82-4.225-2.566-5.88a397814 397814 0 0 0-40.364-89.63c-5.224-11.595-5.23-11.59-17.753-10.768-1.164.077-2.352.281-3.49.132-3.838-.504-5.487 1.231-6.542 4.891-5.115 17.735-10.522 35.385-15.804 53.07-5.419 18.143-10.814 36.293-16.383 54.99 6.918-.399 13.342-.909 19.775-1.08 3.173-.083 4.748-1.218 5.421-4.41 1.133-5.363 2.791-10.613 4.021-15.96.586-2.546 1.827-3.41 4.445-3.52a518 518 0 0 0 23.927-1.554c12.12-1.075 12.11-1.17 16.952 10.77m-40.23 879.554 13.428-37.413c.618 1.837 1.067 2.705 1.193 3.617 1.767 12.861 3.607 25.714 5.191 38.598 1.539 12.51 1.43 12.393 13.838 13.497 3.614.321 5.176-.677 6.324-4.202 7.677-23.559 15.612-47.034 23.44-70.543.44-1.318.682-2.702 1.108-4.428l-16.346-1.678c-5.54 18.398-10.96 36.406-16.383 54.414l-.86-.203-7.14-56.826c-3.473-.326-6.375-.226-9.063-.938-3.934-1.042-5.555.329-6.778 4.054-4.93 15.008-10.158 29.918-15.3 44.856-.55 1.598-1.258 3.141-1.893 4.71-2.172-17.526-3.543-34.787-5.11-52.03-.153-1.676-1.27-4.437-2.348-4.653-4.633-.928-9.42-1.092-14.765-1.593l9.521 82.678c16.262 3.712 16.262 3.712 21.944-11.917m-143.06-942.295 3.243 11.827 32.096-8.057 22.783 88.788 21.97-5.618-22.678-88.833 32.648-8.554-4.678-17.713-86.678 22.201c.443 1.981.797 3.564 1.293 5.959m266.91 48.124 7.097-60.54 33.499 3.823 2.079-18.242-89.132-10.411-1.955 18.218 32.868 4.023-10.6 91.052 22.495 2.631a7697 7697 0 0 0 3.65-30.554M501.04 1012.521c-8.109-9.245-18.61-13.29-30.602-13.291-8.668-.001-15.998 3.3-20.129 11.498-4.221 8.377-2.59 16.312 3.013 23.329 3.191 3.996 7.164 7.385 10.908 10.917 3.265 3.08 6.85 5.828 10.025 8.994 3.304 3.295 3.917 7.328 1.58 11.438-2.3 4.045-6.086 4.784-10.37 3.999-11.56-2.119-15.37-6.922-15.369-19.6-2.415-.915-4.881-1.891-7.378-2.784-2.433-.869-4.898-1.652-7.288-2.452-3.928 9.038-1.907 18.525 5.41 26.032 8.04 8.247 18.059 12.485 29.39 13.143 8.654.503 16.16-2.37 20.633-10.449 4.624-8.354 4.423-16.797-1.353-24.4-3.484-4.584-7.983-8.417-12.164-12.446-3.109-2.995-6.596-5.606-9.625-8.674-2.897-2.936-4.132-6.508-1.783-10.43 2.269-3.785 5.938-4.645 9.972-4.129 9.959 1.276 14.098 6.315 14.01 17.228l14.923 5.528c3.162-8.558 1.646-15.972-3.803-23.451m167.94 45.058 10.14 41.718 16.265-4.033-7.646-32.374 31.286-7.709-3.28-13.08-31.315 7.462-4.894-20.378 35.177-8.653-3.17-13.215-51.716 12.546a9645 9645 0 0 1 9.154 37.716m97.964-45.081-5.724-12.238 22.534-10.734-5.754-12.359-60.295 28.4 5.846 12.27 22.337-10.344 29.01 61.53 15.257-7.174c-7.79-16.53-15.36-32.59-23.21-49.351m-138.955 31.154 5.601 60.812 16.778-1.619-7.52-81.339-16.79 1.64c.672 7.002 1.275 13.295 1.931 20.506"/>
    <path fill="#1B1A27"
          d="M813.222 435.958c.941 3.338 3.087 3.31 5.617 3.183 34.398-1.714 67.777 3.711 99.93 15.728 65.296 24.403 110.854 69.319 134.025 135.02 26.039 73.834 19.272 145.46-21.9 212.434-31.39 51.062-78.039 82.296-135.616 97.615-23.619 6.283-47.706 9.114-72.141 9.078-19.665-.03-39.33.07-58.994-.08-3.3-.026-5.435 1.012-7.622 3.469-35.759 40.169-80.411 64.068-133.864 69.202-70.125 6.735-129.27-16.835-176.863-68.887-2.484-2.717-4.837-3.809-8.49-3.793-31.996.142-63.993.168-95.99.063-51.183-.168-96.526-16.761-134.97-50.419-50.154-43.908-75.411-99.867-71.78-166.384 4.284-78.486 42.2-137.458 111.534-175.21 34.65-18.865 72.118-25.835 111.43-23.067 1.974.139 3.966.018 6.504.018.879-4.665 1.556-9.552 2.734-14.315 23.563-95.275 82.399-156.867 177.78-180.233 108.462-26.569 220.105 29.597 266.438 131.676.687 1.513 1.385 3.02 2.238 4.902M166.416 612.982c-21.707 45.015-26.051 91.636-11.802 139.552 24.737 83.186 102.72 140.31 191.37 140.648 28.996.11 58.004.447 86.984-.266 10.743-.264 19.481 1.204 25.432 10.94 1.185 1.94 3.174 3.4 4.841 5.031 50.732 49.604 110.909 68.055 180.431 53.382 43.404-9.161 78.405-33.017 107.655-65.765 2.222-2.487 4.402-3.432 7.669-3.415 25.662.134 51.326.015 76.988.14 19.797.097 39.207-2.489 58.26-7.792 131.63-36.636 198.935-186.621 137.926-310.669-37.607-76.465-100.456-118.016-185.9-123.894-13.21-.91-26.576.422-40.338.727-17.87-49.472-49.473-88.715-95.394-115.883-46.028-27.23-95.826-36.661-148.628-28.565-103.544 15.878-178.71 100.16-186.435 197.078-42.59-5.319-83.321 1.038-121.626 20.711-38.391 19.718-67.505 48.834-87.433 88.04"/>
    <path fill="#F8F8EF"
          d="M769.058 229.921c10.558-.072 15.007-6.789 17.818-15.169 4.494-13.4 8.799-26.862 13.206-40.29 3.1-9.449 6.238-18.885 9.475-28.675l21.605 7.061c-3.71 11.301-7.328 22.304-10.937 33.31-3.73 11.376-7.41 22.768-11.185 34.129-7.825 23.556-25.725 33.192-49.597 26.43-5.075-1.437-10.112-3.487-14.695-6.087-15.278-8.665-22.421-23.885-17.51-40.674 7.09-24.243 15.49-48.103 23.352-72.12.088-.27.454-.45 1.075-1.035l20.79 6.827c-4.052 12.436-7.95 24.422-11.862 36.403-3.303 10.116-6.626 20.225-9.933 30.34-5.764 17.636-.31 26.594 18.398 29.55M385.653 269.73c-10.476 4.215-20.882 5.906-31.614 3.225-9.754-2.438-16.746-8.39-21.39-18.006l20.082-9.588c1.118 1.488 2.072 2.783 3.052 4.058 3.79 4.935 8.889 7.405 14.879 5.831 5.213-1.37 10.413-3.444 15.052-6.17 5.377-3.16 7.213-8.375 5.957-13.143-1.551-5.886-5.73-9.556-12.393-9.65-5.96-.086-11.93 1.08-17.903 1.148-8.772.1-17.808.987-26.274-.726-19.255-3.897-27.76-24.481-17.937-41.297 9.32-15.955 32.702-26.875 50.587-23.408 10.287 1.994 17.729 7.88 22.671 17.791l-19.8 9.452c-8.687-12.477-19.998-10.493-30.648-1.82-4.107 3.343-6.078 7.885-4.081 13.378 1.952 5.372 6.319 7.245 11.432 7.131 6.635-.148 13.248-1.206 19.883-1.366 7.45-.18 15.016-.52 22.349.51 11.776 1.654 19.402 9.102 23.203 20.187 3.706 10.804 1.215 20.832-6.857 28.452-5.813 5.487-13.207 9.298-20.25 14.011m438.022-15.46c-1.178-7.469.63-13.907 4.192-20.85l19.33 10.945c-4.463 15.657 2.283 26.434 18.198 29.917 4.812 1.053 9.037.232 12.147-3.7 3.38-4.276 4.41-9.246 1.31-13.937-3.377-5.113-7.324-9.878-11.296-14.563-7.126-8.409-14.382-16.68-16.837-27.898-3.51-16.038 7.9-32.188 24.238-33.046 20.24-1.064 36.373 7.253 47.332 24.294 6.51 10.123 6.419 21 .266 32.202l-19.143-10.83c3.69-14.165-2.536-23.688-16.995-26.318-4.792-.872-8.956.333-12.044 4.25-3.059 3.879-3.11 8.23-.454 12.1 3.657 5.328 8.115 10.103 11.816 15.403 5.298 7.587 11.71 14.853 15.01 23.288 7.822 19.993-7.783 40.5-29.084 38.61-19.478-1.727-34.443-11.62-44.273-28.648-1.861-3.225-2.459-7.18-3.713-11.22m-233.454-46.471c-4.698-11.582-4.69-11.488-16.809-10.413a518 518 0 0 1-23.927 1.554c-2.618.11-3.859.974-4.445 3.52-1.23 5.347-2.888 10.597-4.02 15.96-.674 3.192-2.249 4.327-5.422 4.41-6.433.171-12.857.681-19.775 1.08 5.57-18.697 10.964-36.847 16.383-54.99 5.282-17.685 10.689-35.335 15.804-53.07 1.055-3.66 2.704-5.395 6.541-4.891 1.139.15 2.327-.055 3.49-.132 12.524-.822 12.53-.827 17.754 10.769a397814 397814 0 0 1 40.364 89.63c.745 1.654 1.453 3.326 2.566 5.879-7.906.572-15.253 1.171-22.612 1.527-.722.035-1.782-1.3-2.226-2.22-1.298-2.692-2.365-5.496-3.666-8.613m-29.636-64.57-9.694 37.161 27.456-1.668-16.421-40a917 917 0 0 1-1.34 4.507"/>
    <path fill="#F7F8EF"
          d="M550.032 1088.09c-5.58 15.248-5.58 15.248-21.84 11.536-3.137-27.229-6.29-54.607-9.522-82.678 5.345.5 10.132.665 14.765 1.593 1.078.216 2.195 2.977 2.348 4.653 1.567 17.243 2.938 34.504 5.11 52.03.635-1.569 1.343-3.112 1.893-4.71 5.142-14.938 10.37-29.848 15.3-44.856 1.223-3.725 2.844-5.096 6.778-4.054 2.688.712 5.59.612 9.063.938l7.14 56.826.86.203 16.383-54.414 16.346 1.678c-.426 1.726-.669 3.11-1.108 4.428-7.828 23.51-15.763 46.984-23.44 70.543-1.148 3.525-2.71 4.523-6.324 4.202-12.407-1.104-12.3-.987-13.838-13.497-1.584-12.884-3.424-25.737-5.191-38.598-.126-.912-.575-1.78-1.193-3.617a17032 17032 0 0 0-13.53 37.793"/>
    <path fill="#F8F8EF"
          d="M407.003 145.008c-.425-1.989-.779-3.572-1.222-5.553l86.678-22.201 4.678 17.713-32.648 8.554c7.587 29.717 15.09 59.108 22.677 88.833l-21.969 5.618-22.783-88.788-32.096 8.057c-1.1-4.01-2.172-7.918-3.315-12.233m266.948 48.979a14266 14266 0 0 1-3.616 30.105l-22.496-2.63 10.601-91.053-32.868-4.023 1.955-18.218 89.132 10.411-2.08 18.242-33.498-3.824a64151 64151 0 0 0-7.13 60.99"/>
    <path fill="#F7F8EF"
          d="M501.274 1012.797c5.216 7.203 6.732 14.617 3.57 23.175l-14.924-5.528c.089-10.913-4.05-15.952-14.01-17.228-4.033-.516-7.702.344-9.97 4.13-2.35 3.921-1.115 7.493 1.782 10.429 3.029 3.068 6.516 5.679 9.625 8.674 4.18 4.029 8.68 7.862 12.164 12.447 5.776 7.602 5.977 16.045 1.353 24.4-4.472 8.078-11.98 10.951-20.634 10.448-11.33-.658-21.349-4.896-29.388-13.143-7.318-7.507-9.339-16.994-5.411-26.032 2.39.8 4.855 1.583 7.288 2.452 2.497.893 4.963 1.869 7.378 2.784 0 12.678 3.809 17.481 15.368 19.6 4.285.785 8.071.046 10.371-4 2.337-4.109 1.724-8.142-1.58-11.437-3.174-3.166-6.76-5.914-10.025-8.994-3.744-3.532-7.717-6.921-10.908-10.917-5.604-7.017-7.234-14.952-3.013-23.329 4.13-8.197 11.46-11.5 20.129-11.498 11.992.001 22.493 4.046 30.835 13.567m167.636 44.376c-3.023-12.49-5.973-24.575-9.082-37.31l51.716-12.546c1.1 4.59 2.09 8.717 3.17 13.215l-35.177 8.653 4.894 20.378 31.315-7.463 3.28 13.081-31.286 7.71 7.646 32.373-16.264 4.033a24335 24335 0 0 1-10.213-42.124m98.178-44.325c7.71 16.411 15.28 32.472 23.07 49.001l-15.258 7.174-29.009-61.53-22.337 10.345-5.846-12.272 60.295-28.399 5.754 12.359-22.534 10.734c1.991 4.257 3.858 8.247 5.865 12.588m-139.122 30.345a7764 7764 0 0 0-1.903-20.047l16.79-1.64 7.519 81.339-16.778 1.619a81792 81792 0 0 1-5.628-61.271"/>
    <path fill="#F8F1DF"
          d="M166.593 612.653c19.75-38.877 48.865-67.993 87.256-87.711 38.305-19.673 79.037-26.03 121.626-20.711 7.725-96.918 82.891-181.2 186.435-197.078 52.802-8.096 102.6 1.335 148.628 28.565 45.921 27.168 77.525 66.411 95.394 115.883 13.762-.305 27.127-1.636 40.338-.727 85.444 5.878 148.293 47.429 185.9 123.894 61.009 124.048-6.296 274.033-137.926 310.669-19.053 5.303-38.463 7.89-58.26 7.792-25.662-.125-51.326-.006-76.988-.14-3.267-.017-5.447.928-7.669 3.415-29.25 32.748-64.251 56.604-107.655 65.765-69.522 14.673-129.7-3.778-180.43-53.382-1.668-1.63-3.657-3.091-4.842-5.03-5.95-9.737-14.689-11.205-25.432-10.941-28.98.713-57.988.377-86.984.266-88.65-.338-166.633-57.462-191.37-140.648-14.25-47.916-9.905-94.537 11.979-139.881m324.95 112.367c-3.784 6.278-7.492 12.604-11.38 18.817-2.272 3.63-1.478 6.056 2.121 8.21a32618 32618 0 0 1 87.827 52.762c3.76 2.267 6.325 1.725 8.607-2.197 4.517-7.764 9.287-15.382 14.045-23.003 35.184-56.343 70.392-112.671 105.59-169.006 4.036-6.462 8.054-12.936 12.322-19.792l-27.583-17.255-118.38 189.415c-1.894-1.1-3.46-1.981-5-2.906-19.995-12.007-39.993-24.01-59.97-36.045-2.747-1.655-5.366-3.025-8.2 1"/>
    <path fill="#10BEF5"
          d="M560.698 142.857c.333-1.112.552-1.853 1.228-4.137l16.42 40.001-27.455 1.668c3.356-12.863 6.525-25.012 9.807-37.532"/>
    <path fill="#359D50"
          d="M491.736 724.711c2.64-3.716 5.26-2.346 8.006-.691 19.977 12.036 39.975 24.038 59.97 36.045 1.54.925 3.106 1.807 5 2.906l118.38-189.415 27.583 17.255c-4.268 6.856-8.286 13.33-12.323 19.792-35.197 56.335-70.405 112.663-105.589 169.006-4.758 7.62-9.528 15.24-14.045 23.003-2.282 3.922-4.847 4.464-8.607 2.197a32618 32618 0 0 0-87.827-52.762c-3.6-2.154-4.393-4.58-2.12-8.21 3.887-6.213 7.595-12.539 11.572-19.126"/>
</svg>
