<?xml version="1.0" encoding="UTF-8"?>
<svg xmlns="http://www.w3.org/2000/svg" xmlns:xlink="http://www.w3.org/1999/xlink" width="44px" height="44px" viewBox="0 0 44 44" version="1.1">
<g id="surface1">
<path style=" stroke:none;fill-rule:nonzero;fill:rgb(9.411765%,8.627451%,13.72549%);fill-opacity:1;" d="M 0.109375 18.957031 C 0.109375 15.933594 0.113281 12.925781 0.109375 9.917969 C 0.109375 9.027344 0.257812 8.160156 0.503906 7.308594 C 0.832031 6.175781 1.363281 5.109375 2.066406 4.164062 C 2.621094 3.414062 3.28125 2.746094 4.019531 2.179688 C 4.894531 1.503906 5.847656 0.980469 6.890625 0.640625 C 7.527344 0.433594 8.1875 0.300781 8.847656 0.195312 C 9.335938 0.113281 9.839844 0.113281 10.339844 0.113281 C 18.234375 0.109375 26.128906 0.109375 34.027344 0.109375 C 34.925781 0.109375 35.796875 0.253906 36.652344 0.503906 C 37.789062 0.832031 38.851562 1.363281 39.800781 2.066406 C 40.546875 2.621094 41.214844 3.28125 41.785156 4.019531 C 42.453125 4.890625 42.980469 5.867188 43.335938 6.90625 C 43.59375 7.652344 43.769531 8.417969 43.816406 9.207031 C 43.835938 9.535156 43.851562 9.863281 43.851562 10.191406 C 43.851562 18.136719 43.851562 26.082031 43.855469 34.027344 C 43.855469 34.921875 43.707031 35.796875 43.460938 36.652344 C 43.128906 37.785156 42.601562 38.851562 41.898438 39.800781 C 41.339844 40.546875 40.683594 41.214844 39.941406 41.785156 C 39.070312 42.457031 38.113281 42.984375 37.070312 43.324219 C 36.4375 43.53125 35.773438 43.664062 35.117188 43.769531 C 34.628906 43.847656 34.121094 43.847656 33.625 43.847656 C 25.726562 43.855469 17.832031 43.851562 9.9375 43.855469 C 9.039062 43.855469 8.167969 43.707031 7.308594 43.457031 C 6.175781 43.128906 5.109375 42.601562 4.164062 41.898438 C 3.414062 41.339844 2.746094 40.683594 2.179688 39.941406 C 1.507812 39.070312 0.984375 38.09375 0.628906 37.054688 C 0.371094 36.3125 0.195312 35.542969 0.148438 34.753906 C 0.125 34.425781 0.113281 34.097656 0.109375 33.769531 C 0.109375 28.839844 0.109375 23.90625 0.109375 18.957031 M 8.910156 1.152344 C 8.808594 1.167969 8.707031 1.183594 8.605469 1.203125 C 4.222656 1.976562 1.066406 5.726562 1.066406 10.167969 C 1.0625 18.042969 1.0625 25.921875 1.070312 33.796875 C 1.074219 34.355469 1.125 34.921875 1.226562 35.472656 C 2.019531 39.78125 5.769531 42.894531 10.152344 42.898438 C 18.035156 42.902344 25.917969 42.902344 33.804688 42.890625 C 34.328125 42.890625 34.851562 42.84375 35.371094 42.753906 C 39.691406 42.019531 42.890625 38.246094 42.894531 33.859375 C 42.902344 25.941406 42.898438 18.019531 42.894531 10.097656 C 42.894531 9.28125 42.78125 8.464844 42.550781 7.675781 C 41.425781 3.742188 37.878906 1.066406 33.78125 1.066406 C 26.066406 1.0625 18.355469 1.0625 10.644531 1.070312 C 10.078125 1.070312 9.511719 1.117188 8.910156 1.152344 "/>
<path style=" stroke:none;fill-rule:nonzero;fill:rgb(3.921569%,74.117647%,96.078431%);fill-opacity:1;" d="M 8.925781 1.148438 C 9.511719 1.117188 10.078125 1.070312 10.644531 1.070312 C 18.355469 1.0625 26.066406 1.0625 33.78125 1.066406 C 37.878906 1.066406 41.425781 3.742188 42.550781 7.675781 C 42.78125 8.464844 42.894531 9.28125 42.894531 10.097656 C 42.898438 18.019531 42.902344 25.941406 42.894531 33.859375 C 42.890625 38.246094 39.691406 42.019531 35.371094 42.753906 C 34.851562 42.84375 34.328125 42.890625 33.804688 42.890625 C 25.917969 42.902344 18.035156 42.902344 10.152344 42.894531 C 5.769531 42.894531 2.019531 39.78125 1.226562 35.472656 C 1.125 34.921875 1.070312 34.359375 1.070312 33.796875 C 1.0625 25.921875 1.0625 18.042969 1.066406 10.167969 C 1.066406 5.726562 4.222656 1.976562 8.605469 1.203125 C 8.707031 1.183594 8.808594 1.167969 8.925781 1.148438 M 29.8125 15.972656 C 29.785156 15.914062 29.761719 15.859375 29.734375 15.804688 C 28.039062 12.0625 23.941406 10.003906 19.964844 10.976562 C 16.46875 11.835938 14.3125 14.09375 13.449219 17.585938 C 13.40625 17.761719 13.378906 17.9375 13.347656 18.109375 C 13.253906 18.109375 13.183594 18.117188 13.109375 18.109375 C 11.667969 18.007812 10.292969 18.265625 9.023438 18.957031 C 6.480469 20.339844 5.089844 22.5 4.933594 25.378906 C 4.800781 27.820312 5.726562 29.871094 7.566406 31.480469 C 8.976562 32.714844 10.636719 33.324219 12.515625 33.328125 C 13.6875 33.332031 14.863281 33.332031 16.035156 33.328125 C 16.167969 33.328125 16.253906 33.367188 16.34375 33.464844 C 18.089844 35.375 20.257812 36.238281 22.832031 35.992188 C 24.789062 35.804688 26.425781 34.925781 27.738281 33.453125 C 27.820312 33.363281 27.898438 33.328125 28.019531 33.328125 C 28.738281 33.332031 29.460938 33.328125 30.179688 33.328125 C 31.078125 33.332031 31.960938 33.226562 32.828125 32.996094 C 34.9375 32.4375 36.648438 31.289062 37.800781 29.417969 C 39.308594 26.960938 39.558594 24.335938 38.601562 21.628906 C 37.753906 19.21875 36.082031 17.574219 33.6875 16.679688 C 32.507812 16.238281 31.285156 16.039062 30.023438 16.101562 C 29.929688 16.105469 29.851562 16.105469 29.8125 15.972656 M 28.183594 8.429688 C 27.511719 8.320312 27.3125 7.992188 27.523438 7.347656 L 27.886719 6.234375 C 28.03125 5.796875 28.175781 5.355469 28.324219 4.898438 L 27.5625 4.648438 C 27.539062 4.671875 27.523438 4.675781 27.523438 4.6875 C 27.234375 5.566406 26.925781 6.441406 26.664062 7.332031 C 26.484375 7.949219 26.746094 8.503906 27.308594 8.824219 C 27.476562 8.917969 27.660156 8.992188 27.847656 9.046875 C 28.722656 9.292969 29.378906 8.941406 29.664062 8.078125 C 29.804688 7.660156 29.9375 7.242188 30.074219 6.824219 C 30.207031 6.421875 30.339844 6.019531 30.476562 5.605469 L 29.683594 5.34375 C 29.566406 5.695312 29.453125 6.046875 29.335938 6.398438 C 29.175781 6.886719 29.015625 7.382812 28.851562 7.875 C 28.75 8.179688 28.585938 8.425781 28.183594 8.429688 M 14.152344 9.882812 C 14.398438 9.71875 14.671875 9.578125 14.882812 9.375 C 15.179688 9.097656 15.269531 8.730469 15.132812 8.332031 C 14.996094 7.925781 14.714844 7.652344 14.285156 7.59375 C 14.015625 7.554688 13.738281 7.566406 13.464844 7.574219 C 13.21875 7.578125 12.980469 7.617188 12.734375 7.625 C 12.546875 7.628906 12.386719 7.558594 12.316406 7.363281 C 12.242188 7.160156 12.316406 6.996094 12.464844 6.871094 C 12.855469 6.554688 13.269531 6.480469 13.589844 6.9375 L 14.316406 6.59375 C 14.132812 6.230469 13.859375 6.011719 13.484375 5.941406 C 12.828125 5.8125 11.96875 6.214844 11.628906 6.796875 C 11.269531 7.414062 11.582031 8.167969 12.285156 8.3125 C 12.597656 8.375 12.929688 8.34375 13.25 8.339844 C 13.46875 8.335938 13.6875 8.292969 13.90625 8.296875 C 14.152344 8.300781 14.304688 8.4375 14.359375 8.652344 C 14.40625 8.828125 14.339844 9.015625 14.144531 9.132812 C 13.972656 9.234375 13.78125 9.308594 13.589844 9.359375 C 13.371094 9.417969 13.183594 9.324219 13.046875 9.144531 C 13.011719 9.097656 12.972656 9.050781 12.933594 8.996094 L 12.199219 9.347656 C 12.367188 9.699219 12.625 9.917969 12.980469 10.007812 C 13.375 10.105469 13.757812 10.042969 14.152344 9.882812 M 30.203125 9.339844 C 30.246094 9.472656 30.269531 9.617188 30.335938 9.734375 C 30.699219 10.359375 31.246094 10.722656 31.960938 10.785156 C 32.742188 10.855469 33.3125 10.101562 33.027344 9.371094 C 32.90625 9.058594 32.671875 8.792969 32.476562 8.515625 C 32.339844 8.320312 32.175781 8.144531 32.042969 7.949219 C 31.945312 7.808594 31.949219 7.648438 32.058594 7.507812 C 32.175781 7.363281 32.328125 7.320312 32.5 7.351562 C 33.03125 7.449219 33.261719 7.796875 33.125 8.316406 L 33.828125 8.710938 C 34.054688 8.304688 34.054688 7.902344 33.816406 7.53125 C 33.414062 6.90625 32.824219 6.601562 32.082031 6.640625 C 31.484375 6.671875 31.066406 7.265625 31.191406 7.851562 C 31.285156 8.265625 31.550781 8.570312 31.808594 8.875 C 31.957031 9.046875 32.101562 9.222656 32.222656 9.410156 C 32.335938 9.582031 32.300781 9.765625 32.175781 9.921875 C 32.0625 10.066406 31.90625 10.097656 31.730469 10.058594 C 31.148438 9.929688 30.898438 9.535156 31.0625 8.960938 L 30.355469 8.558594 C 30.226562 8.8125 30.160156 9.050781 30.203125 9.339844 M 21.648438 7.632812 C 21.6875 7.734375 21.726562 7.835938 21.773438 7.933594 C 21.792969 7.96875 21.832031 8.015625 21.859375 8.015625 C 22.128906 8.003906 22.398438 7.980469 22.6875 7.960938 C 22.644531 7.867188 22.621094 7.804688 22.59375 7.746094 C 22.097656 6.648438 21.605469 5.554688 21.113281 4.457031 C 20.921875 4.035156 20.921875 4.035156 20.460938 4.0625 C 20.417969 4.066406 20.375 4.074219 20.332031 4.070312 C 20.191406 4.050781 20.132812 4.113281 20.09375 4.246094 C 19.90625 4.898438 19.707031 5.542969 19.515625 6.191406 C 19.316406 6.859375 19.117188 7.523438 18.914062 8.210938 C 19.167969 8.195312 19.402344 8.175781 19.636719 8.171875 C 19.753906 8.167969 19.8125 8.125 19.835938 8.007812 C 19.878906 7.8125 19.941406 7.621094 19.984375 7.425781 C 20.007812 7.332031 20.050781 7.300781 20.148438 7.292969 C 20.441406 7.28125 20.734375 7.261719 21.023438 7.238281 C 21.46875 7.199219 21.46875 7.195312 21.648438 7.632812 M 20.171875 39.882812 L 20.664062 38.511719 C 20.6875 38.578125 20.703125 38.609375 20.707031 38.644531 C 20.773438 39.117188 20.839844 39.585938 20.898438 40.058594 C 20.953125 40.519531 20.949219 40.511719 21.40625 40.554688 C 21.539062 40.566406 21.597656 40.527344 21.636719 40.398438 C 21.917969 39.535156 22.210938 38.675781 22.496094 37.8125 C 22.511719 37.765625 22.519531 37.714844 22.539062 37.652344 L 21.9375 37.589844 C 21.734375 38.265625 21.535156 38.925781 21.335938 39.582031 L 21.304688 39.578125 L 21.042969 37.492188 C 20.917969 37.480469 20.808594 37.484375 20.710938 37.457031 C 20.566406 37.421875 20.507812 37.472656 20.464844 37.605469 C 20.28125 38.15625 20.089844 38.703125 19.902344 39.25 C 19.882812 39.3125 19.855469 39.367188 19.832031 39.425781 C 19.753906 38.78125 19.703125 38.148438 19.644531 37.515625 C 19.640625 37.457031 19.597656 37.355469 19.558594 37.347656 C 19.390625 37.3125 19.214844 37.304688 19.015625 37.289062 L 19.367188 40.320312 C 19.960938 40.457031 19.960938 40.457031 20.171875 39.882812 M 14.925781 5.332031 L 15.042969 5.765625 L 16.222656 5.46875 L 17.058594 8.726562 L 17.863281 8.519531 L 17.03125 5.261719 L 18.226562 4.949219 L 18.058594 4.300781 L 14.878906 5.113281 C 14.894531 5.1875 14.90625 5.246094 14.925781 5.332031 M 24.710938 7.097656 L 24.972656 4.875 L 26.203125 5.015625 L 26.277344 4.347656 L 23.007812 3.964844 L 22.9375 4.632812 L 24.144531 4.78125 L 23.753906 8.121094 L 24.578125 8.21875 C 24.625 7.84375 24.667969 7.46875 24.710938 7.097656 M 18.371094 37.125 C 18.074219 36.785156 17.691406 36.636719 17.25 36.636719 C 16.933594 36.636719 16.664062 36.757812 16.511719 37.058594 C 16.355469 37.367188 16.417969 37.65625 16.621094 37.914062 C 16.738281 38.0625 16.886719 38.1875 17.023438 38.316406 C 17.140625 38.429688 17.273438 38.53125 17.390625 38.644531 C 17.511719 38.765625 17.535156 38.914062 17.449219 39.066406 C 17.363281 39.210938 17.222656 39.238281 17.066406 39.210938 C 16.644531 39.132812 16.503906 38.957031 16.503906 38.492188 C 16.414062 38.457031 16.324219 38.421875 16.234375 38.390625 C 16.144531 38.359375 16.054688 38.332031 15.964844 38.300781 C 15.820312 38.632812 15.894531 38.980469 16.164062 39.253906 C 16.457031 39.558594 16.828125 39.714844 17.242188 39.738281 C 17.558594 39.753906 17.835938 39.648438 18 39.351562 C 18.167969 39.046875 18.160156 38.738281 17.949219 38.460938 C 17.820312 38.292969 17.65625 38.148438 17.503906 38.003906 C 17.390625 37.894531 17.261719 37.796875 17.148438 37.683594 C 17.042969 37.578125 17 37.445312 17.085938 37.300781 C 17.167969 37.164062 17.300781 37.132812 17.449219 37.152344 C 17.816406 37.199219 17.96875 37.382812 17.964844 37.78125 L 18.511719 37.984375 C 18.628906 37.671875 18.570312 37.398438 18.371094 37.125 M 24.527344 38.777344 L 24.902344 40.308594 L 25.496094 40.160156 L 25.21875 38.972656 L 26.363281 38.691406 L 26.242188 38.210938 L 25.097656 38.484375 L 24.914062 37.738281 L 26.207031 37.417969 L 26.089844 36.933594 L 24.191406 37.394531 C 24.304688 37.855469 24.417969 38.316406 24.527344 38.777344 M 28.121094 37.125 L 27.910156 36.675781 L 28.738281 36.285156 L 28.527344 35.828125 L 26.316406 36.871094 L 26.53125 37.320312 L 27.347656 36.941406 L 28.414062 39.199219 L 28.972656 38.933594 C 28.6875 38.328125 28.410156 37.738281 28.121094 37.125 M 23.027344 38.265625 L 23.230469 40.496094 L 23.847656 40.4375 L 23.570312 37.457031 L 22.957031 37.515625 C 22.980469 37.773438 23.003906 38.003906 23.027344 38.265625 "/>
<path style=" stroke:none;fill-rule:nonzero;fill:rgb(10.588235%,10.196078%,15.294118%);fill-opacity:1;" d="M 29.816406 15.984375 C 29.851562 16.105469 29.929688 16.105469 30.023438 16.101562 C 31.285156 16.039062 32.507812 16.238281 33.6875 16.679688 C 36.082031 17.574219 37.753906 19.21875 38.601562 21.628906 C 39.558594 24.335938 39.308594 26.960938 37.800781 29.417969 C 36.648438 31.289062 34.9375 32.4375 32.828125 32.996094 C 31.960938 33.226562 31.078125 33.332031 30.179688 33.332031 C 29.460938 33.328125 28.738281 33.332031 28.019531 33.328125 C 27.898438 33.328125 27.820312 33.363281 27.738281 33.453125 C 26.425781 34.925781 24.792969 35.804688 22.832031 35.992188 C 20.257812 36.238281 18.089844 35.375 16.34375 33.464844 C 16.253906 33.367188 16.167969 33.328125 16.035156 33.328125 C 14.863281 33.332031 13.6875 33.332031 12.515625 33.328125 C 10.636719 33.324219 8.976562 32.714844 7.566406 31.480469 C 5.726562 29.871094 4.800781 27.820312 4.933594 25.378906 C 5.089844 22.5 6.480469 20.339844 9.023438 18.957031 C 10.292969 18.265625 11.667969 18.007812 13.109375 18.109375 C 13.179688 18.117188 13.253906 18.109375 13.347656 18.109375 C 13.378906 17.9375 13.40625 17.761719 13.449219 17.585938 C 14.3125 14.09375 16.46875 11.832031 19.964844 10.976562 C 23.941406 10.003906 28.039062 12.0625 29.734375 15.804688 C 29.761719 15.859375 29.789062 15.914062 29.816406 15.984375 M 6.101562 22.476562 C 5.304688 24.125 5.148438 25.835938 5.667969 27.59375 C 6.574219 30.644531 9.4375 32.738281 12.683594 32.75 C 13.75 32.753906 14.8125 32.765625 15.875 32.738281 C 16.269531 32.730469 16.589844 32.785156 16.808594 33.140625 C 16.851562 33.210938 16.925781 33.265625 16.984375 33.324219 C 18.84375 35.144531 21.050781 35.820312 23.601562 35.285156 C 25.191406 34.945312 26.476562 34.074219 27.546875 32.871094 C 27.628906 32.78125 27.710938 32.746094 27.828125 32.746094 C 28.769531 32.75 29.710938 32.746094 30.652344 32.75 C 31.375 32.757812 32.09375 32.660156 32.789062 32.464844 C 37.617188 31.125 40.082031 25.625 37.847656 21.074219 C 36.46875 18.269531 34.164062 16.746094 31.03125 16.53125 C 30.546875 16.5 30.054688 16.546875 29.550781 16.558594 C 28.894531 14.746094 27.738281 13.304688 26.050781 12.308594 C 24.363281 11.3125 22.539062 10.964844 20.601562 11.261719 C 16.808594 11.84375 14.050781 14.933594 13.765625 18.488281 C 12.207031 18.292969 10.710938 18.527344 9.308594 19.246094 C 7.902344 19.972656 6.832031 21.039062 6.101562 22.476562 "/>
<path style=" stroke:none;fill-rule:nonzero;fill:rgb(97.254902%,97.254902%,93.72549%);fill-opacity:1;" d="M 28.199219 8.429688 C 28.585938 8.425781 28.75 8.179688 28.851562 7.875 C 29.015625 7.382812 29.175781 6.886719 29.335938 6.398438 C 29.449219 6.050781 29.566406 5.703125 29.683594 5.34375 L 30.476562 5.605469 C 30.339844 6.019531 30.207031 6.421875 30.074219 6.824219 C 29.9375 7.242188 29.804688 7.660156 29.664062 8.078125 C 29.378906 8.941406 28.722656 9.292969 27.847656 9.046875 C 27.660156 8.992188 27.476562 8.917969 27.308594 8.824219 C 26.746094 8.503906 26.484375 7.949219 26.664062 7.332031 C 26.925781 6.441406 27.234375 5.566406 27.523438 4.6875 C 27.523438 4.675781 27.539062 4.671875 27.5625 4.648438 L 28.324219 4.898438 C 28.175781 5.355469 28.03125 5.796875 27.886719 6.234375 L 27.523438 7.347656 C 27.3125 7.992188 27.511719 8.320312 28.199219 8.429688 M 14.140625 9.890625 C 13.757812 10.042969 13.375 10.105469 12.980469 10.007812 C 12.625 9.917969 12.367188 9.699219 12.199219 9.347656 L 12.933594 8.996094 C 12.972656 9.050781 13.011719 9.097656 13.046875 9.144531 C 13.183594 9.324219 13.371094 9.417969 13.589844 9.359375 C 13.785156 9.308594 13.96875 9.234375 14.144531 9.132812 C 14.339844 9.015625 14.40625 8.828125 14.359375 8.652344 C 14.304688 8.4375 14.152344 8.300781 13.90625 8.296875 C 13.6875 8.292969 13.46875 8.335938 13.25 8.339844 C 12.929688 8.34375 12.597656 8.375 12.285156 8.3125 C 11.582031 8.167969 11.269531 7.414062 11.628906 6.796875 C 11.96875 6.214844 12.828125 5.8125 13.484375 5.941406 C 13.859375 6.011719 14.132812 6.230469 14.316406 6.59375 L 13.589844 6.9375 C 13.269531 6.480469 12.855469 6.554688 12.464844 6.871094 C 12.316406 6.996094 12.242188 7.160156 12.316406 7.363281 C 12.386719 7.558594 12.546875 7.628906 12.734375 7.625 C 12.980469 7.617188 13.21875 7.578125 13.464844 7.574219 C 13.738281 7.566406 14.015625 7.554688 14.285156 7.59375 C 14.714844 7.652344 14.996094 7.925781 15.132812 8.332031 C 15.269531 8.730469 15.179688 9.097656 14.882812 9.375 C 14.671875 9.578125 14.398438 9.71875 14.140625 9.890625 M 30.203125 9.324219 C 30.160156 9.050781 30.226562 8.8125 30.355469 8.558594 L 31.0625 8.960938 C 30.898438 9.535156 31.148438 9.929688 31.730469 10.058594 C 31.90625 10.097656 32.0625 10.066406 32.175781 9.921875 C 32.300781 9.765625 32.335938 9.582031 32.222656 9.410156 C 32.101562 9.222656 31.957031 9.046875 31.808594 8.875 C 31.550781 8.570312 31.285156 8.265625 31.191406 7.851562 C 31.066406 7.265625 31.484375 6.671875 32.082031 6.640625 C 32.824219 6.601562 33.414062 6.910156 33.816406 7.53125 C 34.054688 7.902344 34.054688 8.304688 33.828125 8.710938 L 33.125 8.316406 C 33.261719 7.796875 33.03125 7.449219 32.5 7.351562 C 32.328125 7.320312 32.175781 7.363281 32.058594 7.507812 C 31.949219 7.648438 31.945312 7.808594 32.042969 7.949219 C 32.175781 8.144531 32.339844 8.320312 32.476562 8.515625 C 32.671875 8.792969 32.90625 9.058594 33.027344 9.371094 C 33.3125 10.101562 32.742188 10.855469 31.960938 10.785156 C 31.246094 10.722656 30.699219 10.359375 30.335938 9.734375 C 30.269531 9.617188 30.246094 9.472656 30.203125 9.324219 M 21.640625 7.621094 C 21.46875 7.195312 21.46875 7.199219 21.023438 7.238281 C 20.734375 7.261719 20.441406 7.28125 20.148438 7.292969 C 20.050781 7.300781 20.007812 7.328125 19.984375 7.425781 C 19.941406 7.621094 19.878906 7.8125 19.835938 8.007812 C 19.8125 8.125 19.753906 8.167969 19.636719 8.171875 C 19.402344 8.175781 19.167969 8.195312 18.914062 8.210938 C 19.117188 7.523438 19.316406 6.859375 19.515625 6.191406 C 19.707031 5.542969 19.90625 4.898438 20.09375 4.246094 C 20.132812 4.113281 20.191406 4.050781 20.332031 4.070312 C 20.375 4.074219 20.417969 4.066406 20.460938 4.0625 C 20.921875 4.035156 20.921875 4.035156 21.113281 4.457031 C 21.605469 5.554688 22.097656 6.648438 22.59375 7.746094 C 22.621094 7.804688 22.644531 7.867188 22.6875 7.960938 C 22.398438 7.980469 22.128906 8.003906 21.859375 8.015625 C 21.832031 8.015625 21.792969 7.96875 21.773438 7.933594 C 21.726562 7.835938 21.6875 7.734375 21.640625 7.621094 M 20.554688 5.25 L 20.199219 6.613281 L 21.207031 6.554688 L 20.605469 5.085938 C 20.585938 5.140625 20.570312 5.195312 20.554688 5.25 "/>
<path style=" stroke:none;fill-rule:nonzero;fill:rgb(96.862745%,97.254902%,93.72549%);fill-opacity:1;" d="M 20.167969 39.898438 C 19.960938 40.457031 19.960938 40.457031 19.367188 40.320312 C 19.253906 39.320312 19.136719 38.316406 19.015625 37.289062 C 19.214844 37.304688 19.390625 37.3125 19.558594 37.347656 C 19.597656 37.355469 19.640625 37.457031 19.644531 37.515625 C 19.703125 38.148438 19.753906 38.78125 19.832031 39.425781 C 19.855469 39.367188 19.882812 39.3125 19.902344 39.25 C 20.089844 38.703125 20.28125 38.15625 20.464844 37.605469 C 20.507812 37.472656 20.566406 37.421875 20.710938 37.457031 C 20.808594 37.484375 20.917969 37.480469 21.042969 37.492188 L 21.304688 39.578125 L 21.335938 39.582031 L 21.9375 37.589844 L 22.539062 37.652344 C 22.519531 37.714844 22.511719 37.765625 22.496094 37.8125 C 22.210938 38.675781 21.917969 39.535156 21.636719 40.398438 C 21.597656 40.527344 21.539062 40.566406 21.40625 40.554688 C 20.949219 40.511719 20.953125 40.519531 20.898438 40.058594 C 20.839844 39.585938 20.773438 39.117188 20.707031 38.644531 C 20.703125 38.609375 20.6875 38.578125 20.664062 38.511719 C 20.496094 38.972656 20.332031 39.433594 20.167969 39.898438 "/>
<path style=" stroke:none;fill-rule:nonzero;fill:rgb(97.254902%,97.254902%,93.72549%);fill-opacity:1;" d="M 14.921875 5.316406 L 14.878906 5.113281 L 18.058594 4.300781 L 18.226562 4.949219 L 17.03125 5.261719 C 17.308594 6.351562 17.585938 7.429688 17.863281 8.519531 L 17.058594 8.726562 L 16.222656 5.46875 L 15.042969 5.765625 C 15.003906 5.617188 14.964844 5.476562 14.921875 5.316406 M 24.710938 7.113281 C 24.667969 7.480469 24.625 7.847656 24.578125 8.21875 L 23.753906 8.121094 L 24.144531 4.78125 L 22.9375 4.632812 L 23.007812 3.964844 L 26.277344 4.347656 L 26.203125 5.015625 L 24.972656 4.875 C 24.886719 5.621094 24.796875 6.367188 24.710938 7.113281 "/>
<path style=" stroke:none;fill-rule:nonzero;fill:rgb(96.862745%,97.254902%,93.72549%);fill-opacity:1;" d="M 18.378906 37.136719 C 18.570312 37.398438 18.625 37.671875 18.511719 37.984375 L 17.964844 37.78125 C 17.964844 37.382812 17.816406 37.199219 17.449219 37.152344 C 17.300781 37.132812 17.167969 37.164062 17.085938 37.300781 C 17 37.445312 17.042969 37.578125 17.148438 37.683594 C 17.261719 37.796875 17.390625 37.894531 17.503906 38.003906 C 17.65625 38.152344 17.820312 38.292969 17.949219 38.460938 C 18.160156 38.738281 18.167969 39.046875 18 39.355469 C 17.835938 39.652344 17.558594 39.753906 17.242188 39.738281 C 16.828125 39.714844 16.457031 39.558594 16.164062 39.253906 C 15.894531 38.980469 15.820312 38.632812 15.964844 38.300781 C 16.054688 38.332031 16.144531 38.359375 16.234375 38.390625 C 16.324219 38.421875 16.414062 38.457031 16.503906 38.492188 C 16.503906 38.957031 16.644531 39.132812 17.066406 39.210938 C 17.222656 39.238281 17.363281 39.210938 17.449219 39.066406 C 17.535156 38.914062 17.511719 38.765625 17.390625 38.644531 C 17.273438 38.53125 17.140625 38.429688 17.019531 38.316406 C 16.886719 38.1875 16.738281 38.0625 16.621094 37.914062 C 16.417969 37.65625 16.355469 37.367188 16.511719 37.058594 C 16.664062 36.757812 16.933594 36.636719 17.25 36.636719 C 17.691406 36.636719 18.074219 36.785156 18.378906 37.136719 M 24.527344 38.761719 C 24.414062 38.304688 24.308594 37.863281 24.191406 37.394531 L 26.089844 36.933594 C 26.128906 37.101562 26.167969 37.253906 26.207031 37.417969 L 24.917969 37.738281 L 25.097656 38.484375 L 26.246094 38.210938 L 26.363281 38.691406 L 25.21875 38.972656 L 25.496094 40.160156 L 24.902344 40.308594 Z M 28.125 37.136719 L 28.972656 38.933594 L 28.414062 39.199219 L 27.347656 36.941406 L 26.53125 37.320312 L 26.316406 36.871094 L 28.527344 35.828125 L 28.738281 36.28125 L 27.910156 36.675781 C 27.984375 36.832031 28.054688 36.976562 28.125 37.136719 M 23.027344 38.25 C 23.003906 38.003906 22.980469 37.761719 22.957031 37.515625 L 23.570312 37.457031 L 23.847656 40.4375 L 23.230469 40.496094 Z M 23.027344 38.25 "/>
<path style=" stroke:none;fill-rule:nonzero;fill:rgb(97.254902%,94.509804%,87.45098%);fill-opacity:1;" d="M 6.109375 22.464844 C 6.832031 21.039062 7.902344 19.972656 9.308594 19.246094 C 10.710938 18.527344 12.207031 18.292969 13.765625 18.488281 C 14.050781 14.933594 16.808594 11.84375 20.601562 11.261719 C 22.539062 10.964844 24.363281 11.3125 26.050781 12.308594 C 27.738281 13.304688 28.894531 14.746094 29.550781 16.558594 C 30.054688 16.546875 30.546875 16.5 31.03125 16.53125 C 34.164062 16.746094 36.46875 18.269531 37.847656 21.074219 C 40.082031 25.625 37.617188 31.125 32.789062 32.464844 C 32.09375 32.660156 31.375 32.757812 30.652344 32.75 C 29.710938 32.746094 28.769531 32.75 27.828125 32.746094 C 27.710938 32.746094 27.628906 32.78125 27.546875 32.871094 C 26.476562 34.074219 25.191406 34.945312 23.601562 35.285156 C 21.050781 35.820312 18.84375 35.144531 16.984375 33.324219 C 16.925781 33.265625 16.851562 33.210938 16.808594 33.140625 C 16.589844 32.785156 16.269531 32.730469 15.875 32.738281 C 14.8125 32.765625 13.75 32.753906 12.683594 32.75 C 9.4375 32.738281 6.574219 30.644531 5.667969 27.59375 C 5.148438 25.835938 5.304688 24.125 6.109375 22.464844 M 18.023438 26.585938 C 17.882812 26.816406 17.75 27.046875 17.605469 27.273438 C 17.523438 27.40625 17.550781 27.496094 17.683594 27.574219 C 18.757812 28.21875 19.832031 28.863281 20.90625 29.511719 C 21.042969 29.59375 21.136719 29.574219 21.21875 29.429688 C 21.386719 29.144531 21.558594 28.863281 21.734375 28.585938 L 25.605469 22.386719 C 25.753906 22.152344 25.902344 21.914062 26.058594 21.664062 L 25.046875 21.03125 L 20.707031 27.976562 C 20.636719 27.933594 20.578125 27.902344 20.523438 27.867188 C 19.789062 27.429688 19.054688 26.988281 18.324219 26.546875 C 18.222656 26.488281 18.128906 26.4375 18.023438 26.585938 "/>
<path style=" stroke:none;fill-rule:nonzero;fill:rgb(6.27451%,74.509804%,96.078431%);fill-opacity:1;" d="M 20.558594 5.238281 C 20.570312 5.199219 20.578125 5.171875 20.605469 5.085938 L 21.207031 6.554688 L 20.199219 6.613281 C 20.324219 6.144531 20.4375 5.695312 20.558594 5.238281 "/>
<path style=" stroke:none;fill-rule:nonzero;fill:rgb(20.784314%,61.568627%,31.372549%);fill-opacity:1;" d="M 18.03125 26.574219 C 18.128906 26.4375 18.222656 26.488281 18.324219 26.546875 C 19.054688 26.988281 19.789062 27.429688 20.523438 27.867188 C 20.578125 27.902344 20.636719 27.933594 20.707031 27.976562 L 25.046875 21.03125 L 26.058594 21.664062 C 25.902344 21.914062 25.753906 22.152344 25.605469 22.386719 C 24.316406 24.453125 23.023438 26.519531 21.734375 28.585938 C 21.558594 28.863281 21.386719 29.144531 21.21875 29.429688 C 21.136719 29.574219 21.042969 29.59375 20.90625 29.511719 C 19.832031 28.863281 18.757812 28.21875 17.683594 27.574219 C 17.550781 27.496094 17.523438 27.40625 17.605469 27.273438 C 17.75 27.046875 17.882812 26.816406 18.03125 26.574219 "/>
</g>
</svg>
