<?xml version="1.0" encoding="UTF-8"?><svg xmlns="http://www.w3.org/2000/svg" viewBox="0 0 977.5 977.5"><defs><style>.d{fill:#5cad79;stroke:#5cad79;stroke-width:30px;}.d,.e{stroke-miterlimit:10;}.e,.f{fill:#115270;}.e,.g{stroke:#fff;}.h,.g{fill:#fff;}.f{stroke:#115270;stroke-width:15px;}.f,.g{stroke-linecap:round;stroke-linejoin:round;}.g{stroke-width:12px;}</style></defs><g id="a"><rect class="d" x="15" y="15" width="947.5" height="947.5" rx="182" ry="182"/></g><g id="b"><path class="f" d="M898.87,689.86c-1.62-12.87-8-49.97-38.89-82.5-36.32-38.24-81.45-43.72-93.1-44.78,2.02-44.3-.12-136.31-53.03-232.17-89.37-161.89-253.31-207.47-285.2-215.67,28.93,29.43,72.31,81.12,102.53,156.74,23.51,58.84,30.86,111.62,33,148.49-44.03-17.84-77.38-35.56-97.82-47.14-105.75-59.89-142.21-111.63-251.02-166.17-27.62-13.84-50.63-23.22-63.64-28.28,51.07,55,102.14,109.99,153.21,164.99l-206.24-126.1c5.26,9.15,13.17,22.36,23.57,37.71,49.19,72.63,100.05,113.61,148.49,154.39,41.21,34.68,100.12,85.59,173.7,153.8-29.95,12.76-67.81,24.82-112.42,30.05-136.95,16.07-244.37-43.09-286.38-69.53,14.81,20.3,38.46,49.99,71.89,81.32,30.06,28.17,184.48,172.88,403.05,159.1,43.25-2.73,119.26-13.57,206.24-61.28,44.48-6.66,78.76-2.23,100.17,2.36,27.88,5.97,55.24,16.75,69.53,22.39,14.63,5.77,26.68,11.21,35.36,15.32.05-5.55-.64-14.16-4.71-23.57-7.93-18.31-23.16-26.87-28.28-29.46Z"/></g><g id="c"><path class="h" d="M281.75,868.75c-82.16,0-149-66.84-149-149s66.84-149,149-149,149,66.84,149,149-66.84,149-149,149Z"/><path class="h" d="M281.75,571.25c39.67,0,76.96,15.45,105.01,43.49s43.49,65.34,43.49,105.01-15.45,76.96-43.49,105.01-65.34,43.49-105.01,43.49-76.96-15.45-105.01-43.49-43.49-65.34-43.49-105.01,15.45-76.96,43.49-105.01,65.34-43.49,105.01-43.49M281.75,570.25c-82.57,0-149.5,66.93-149.5,149.5s66.93,149.5,149.5,149.5,149.5-66.93,149.5-149.5-66.93-149.5-149.5-149.5h0Z"/><polyline class="g" points="157.59 777.75 132.25 869.25 194.75 823.5"/><path class="e" d="M229.25,717.25c10.33,10.33,20.67,20.67,31,31,34.17-36.45,60.21-63.49,72-76,2.39-2.54,8.85-9.42,18-10,1.43-.09,9.38-.59,14,5,3.41,4.13,3.1,9.27,3,11-.47,7.76-5.48,13.29-7,15-6.92,7.79-73.96,85.61-90.5,99.51-4.5,3.78-8.64,4.37-9.5,4.49-7.88,1.1-13.59-3.7-14.51-4.49-15.16-17.17-30.33-34.34-45.49-51.51-6.62-7.91-6.99-18.64-2-25,6.36-8.09,21.51-9.22,31,1Z"/></g></svg>