<svg xmlns="http://www.w3.org/2000/svg" width="150" height="150" viewBox="0 0 150 150">
    <path style="stroke:none;fill-rule:nonzero;fill:#181623;fill-opacity:1"
          d="M.375 64.625c0-10.312.008-20.562-.004-30.812-.004-3.036.504-5.989 1.348-8.895a33.7 33.7 0 0 1 5.324-10.723 34.4 34.4 0 0 1 6.664-6.765c2.98-2.297 6.23-4.09 9.79-5.25 2.16-.703 4.413-1.16 6.663-1.52 1.668-.27 3.39-.273 5.09-.273C62.168.37 89.082.379 116 .37c3.059 0 6.031.496 8.957 1.348a33.7 33.7 0 0 1 10.723 5.324 34.4 34.4 0 0 1 6.765 6.664 34.5 34.5 0 0 1 5.29 9.844c.874 2.535 1.476 5.144 1.636 7.84.07 1.117.125 2.238.125 3.359.004 27.082 0 54.168.008 81.25 0 3.059-.5 6.031-1.348 8.957a33.7 33.7 0 0 1-5.324 10.723 34.4 34.4 0 0 1-6.664 6.765c-2.98 2.297-6.23 4.09-9.79 5.25-2.16.703-4.417 1.16-6.663 1.52-1.668.27-3.39.273-5.09.273-26.918.016-53.832.008-80.75.016-3.059 0-6.031-.5-8.957-1.348a33.6 33.6 0 0 1-10.723-5.324 34.4 34.4 0 0 1-6.765-6.664 34.5 34.5 0 0 1-5.29-9.844c-.874-2.535-1.476-5.148-1.64-7.84a60 60 0 0 1-.121-3.359C.37 98.313.375 81.5.375 64.625M30.379 3.922c-.352.058-.7.113-1.047.176-14.93 2.636-25.691 15.418-25.7 30.562-.01 26.852-.01 53.707.02 80.559.004 1.906.18 3.836.524 5.71 2.71 14.684 15.492 25.301 30.437 25.31 26.875.015 53.75.015 80.625-.016a32 32 0 0 0 5.34-.473c14.738-2.5 25.64-15.367 25.656-30.32.028-27 .012-54 .004-81a29.8 29.8 0 0 0-1.172-8.258c-3.843-13.418-15.93-22.535-29.906-22.54-26.293-.007-52.582-.007-78.875.013-1.93 0-3.863.167-5.906.277"/>
    <path style="stroke:none;fill-rule:nonzero;fill:#0abdf5;fill-opacity:1"
          d="M30.434 3.914c1.988-.102 3.921-.27 5.851-.27 26.293-.019 52.582-.019 78.875-.011 13.977.004 26.063 9.12 29.906 22.539a30 30 0 0 1 1.172 8.258c.008 27 .024 54-.004 81-.015 14.953-10.918 27.82-25.656 30.32a32 32 0 0 1-5.34.473c-26.875.03-53.75.03-80.625.015-14.945-.008-27.726-10.625-30.437-25.308a32 32 0 0 1-.524-5.711 50345 50345 0 0 1-.02-80.559c.009-15.144 10.77-27.926 25.7-30.562.348-.063.695-.118 1.102-.184m71.199 50.535q-.131-.286-.262-.566c-5.789-12.762-19.746-19.781-33.305-16.461-11.921 2.922-19.277 10.621-22.218 22.531-.149.594-.235 1.203-.344 1.79-.316 0-.566.015-.813-.005-4.914-.343-9.597.528-13.93 2.883-8.667 4.719-13.406 12.09-13.94 21.902-.454 8.317 2.702 15.309 8.972 20.797 4.805 4.207 10.473 6.282 16.871 6.305q6 .017 12-.008c.457-.004.75.133 1.059.473 5.949 6.508 13.343 9.453 22.109 8.61 6.68-.641 12.262-3.63 16.734-8.65.274-.308.54-.437.954-.433 2.457.02 4.914.008 7.37.008 3.055.008 6.067-.348 9.02-1.133 7.195-1.914 13.028-5.82 16.953-12.203 5.145-8.371 5.992-17.324 2.735-26.555-2.895-8.21-8.59-13.824-16.75-16.875-4.02-1.504-8.192-2.18-12.493-1.964-.316.015-.585.015-.722-.446m-5.555-25.71c-2.285-.368-2.965-1.489-2.246-3.692l1.242-3.793c.489-1.496.977-2.996 1.48-4.55l-2.597-.852c-.078.07-.121.093-.133.128-.984 3-2.035 5.985-2.918 9.016-.617 2.098.278 4 2.188 5.082a8.5 8.5 0 0 0 1.836.762c2.984.844 5.222-.36 6.199-3.305.473-1.418.933-2.844 1.398-4.265.453-1.375.903-2.75 1.368-4.165l-2.7-.882a754 754 0 0 0-1.183 3.586c-.551 1.675-1.09 3.359-1.653 5.035-.351 1.047-.906 1.886-2.28 1.894M48.25 33.695c.836-.566 1.762-1.043 2.488-1.73 1.008-.953 1.32-2.207.856-3.555-.473-1.387-1.426-2.32-2.899-2.523-.918-.13-1.863-.09-2.793-.067-.832.02-1.656.153-2.488.172-.637.016-1.184-.219-1.426-.89-.25-.688-.004-1.254.508-1.672 1.332-1.086 2.746-1.332 3.832.226l2.473-1.183c-.617-1.239-1.547-1.973-2.832-2.223-2.235-.434-5.16.934-6.324 2.926-1.227 2.101-.165 4.676 2.242 5.164 1.058.215 2.187.101 3.285.09.746-.008 1.492-.157 2.238-.145.832.012 1.356.473 1.547 1.207.16.598-.07 1.246-.742 1.645-.582.34-1.23.597-1.883.77-.75.195-1.387-.114-1.86-.731-.12-.156-.242-.32-.382-.504l-2.508 1.195c.578 1.203 1.453 1.95 2.672 2.254 1.344.332 2.644.121 3.996-.426m54.719-1.86c.148.454.222.946.453 1.352 1.23 2.13 3.101 3.364 5.535 3.579 2.664.238 4.613-2.325 3.637-4.825-.414-1.054-1.215-1.964-1.88-2.91-.46-.664-1.019-1.261-1.476-1.926-.332-.484-.324-1.027.059-1.511.387-.492.906-.64 1.504-.532 1.808.329 2.586 1.516 2.125 3.29l2.394 1.351c.77-1.398.782-2.758-.035-4.023-1.367-2.13-3.387-3.172-5.914-3.04-2.043.11-3.469 2.13-3.031 4.133.308 1.403 1.215 2.438 2.105 3.489.496.586.989 1.18 1.41 1.82.387.586.262 1.207-.164 1.742-.386.489-.914.594-1.515.461-1.992-.433-2.836-1.781-2.278-3.738l-2.414-1.371c-.445.87-.671 1.676-.515 2.66M73.797 26.02c.144.343.277.695.437 1.03.059.118.188.282.282.278.918-.043 1.836-.117 2.824-.191-.137-.317-.227-.528-.32-.735q-2.521-5.6-5.047-11.203c-.653-1.449-.653-1.449-2.22-1.347-.144.011-.292.035-.433.02-.48-.063-.687.151-.82.608-.637 2.22-1.312 4.422-1.973 6.633-.68 2.27-1.351 4.54-2.05 6.875.867-.05 1.668-.113 2.472-.133.399-.011.594-.152.68-.554.14-.668.348-1.324.5-1.992.074-.32.23-.426.555-.442 1-.043 1.996-.105 2.992-.195 1.515-.133 1.515-.145 2.12 1.348m-5.03 109.945 1.68-4.68c.077.23.132.34.148.453.222 1.61.453 3.215.648 4.825.192 1.566.18 1.55 1.73 1.687.454.043.65-.082.79-.523.96-2.946 1.953-5.88 2.933-8.82.055-.165.082-.337.137-.552l-2.043-.21c-.691 2.3-1.371 4.55-2.047 6.8l-.11-.023-.89-7.106c-.437-.039-.797-.027-1.133-.117-.492-.129-.695.043-.847.508-.617 1.875-1.27 3.738-1.914 5.606-.067.203-.157.394-.235.59-.273-2.192-.445-4.348-.64-6.505-.02-.207-.16-.554-.293-.582-.578-.113-1.18-.136-1.848-.199l1.191 10.336c2.032.465 2.032.465 2.743-1.488M50.883 18.175l.406 1.481 4.012-1.008 2.847 11.098 2.747-.703-2.833-11.102 4.079-1.07-.582-2.215-10.836 2.778c.054.246.097.445.16.742m33.363 6.015.89-7.566 4.188.477.258-2.278-11.14-1.304-.247 2.277 4.11.504-1.325 11.383 2.813.328q.23-1.91.453-3.82M62.63 126.565c-1.012-1.156-2.324-1.664-3.824-1.664-1.082 0-2 .414-2.516 1.438-.527 1.047-.324 2.039.375 2.918.398.5.898.922 1.363 1.363.41.387.86.73 1.254 1.125.414.41.492.914.2 1.43-.29.504-.762.597-1.297.5-1.446-.266-1.922-.867-1.922-2.45-.301-.117-.61-.238-.922-.347-.305-.11-.613-.207-.91-.309-.492 1.13-.239 2.317.675 3.254 1.004 1.031 2.258 1.563 3.672 1.645 1.082.062 2.02-.297 2.582-1.309.578-1.043.551-2.097-.172-3.047-.433-.574-.996-1.054-1.519-1.558-.387-.371-.824-.7-1.203-1.082-.363-.368-.516-.813-.223-1.305.285-.473.742-.582 1.246-.516 1.246.16 1.762.79 1.75 2.153l1.867.691c.395-1.07.208-1.996-.476-2.93m20.99 5.635 1.27 5.215 2.03-.508-.952-4.047 3.91-.96-.41-1.637-3.914.933-.614-2.547 4.399-1.082-.399-1.652-6.464 1.57q.581 2.355 1.144 4.715m12.246-5.637-.715-1.53 2.817-1.34-.719-1.547-7.535 3.55.73 1.535 2.79-1.293 3.628 7.692 1.907-.899c-.973-2.066-1.922-4.074-2.903-6.167M78.5 130.457l.7 7.602 2.097-.204-.942-10.167-2.097.207c.082.875.16 1.66.242 2.562"/>
    <path style="stroke:none;fill-rule:nonzero;fill:#1b1a27;fill-opacity:1"
          d="M101.652 54.496c.118.414.387.414.703.399 4.301-.215 8.473.46 12.493 1.964 8.16 3.051 13.855 8.664 16.75 16.875 3.257 9.23 2.41 18.184-2.735 26.555-3.925 6.383-9.758 10.29-16.953 12.203-2.953.785-5.965 1.14-9.02 1.137-2.456-.004-4.913.008-7.37-.012-.415-.004-.68.125-.954.434-4.472 5.02-10.05 8.008-16.734 8.648-8.766.844-16.16-2.101-22.11-8.61-.308-.339-.6-.476-1.058-.472q-6 .025-12 .008c-6.398-.023-12.066-2.098-16.871-6.305-6.27-5.488-9.426-12.48-8.973-20.797.535-9.812 5.274-17.183 13.942-21.902 4.332-2.355 9.015-3.226 13.93-2.883.245.02.495.004.812.004.11-.586.195-1.195.344-1.789 2.945-11.91 10.297-19.61 22.218-22.531 13.559-3.32 27.516 3.7 33.305 16.46.086.188.176.376.281.614M20.801 76.621c-2.711 5.629-3.254 11.457-1.473 17.445 3.09 10.399 12.84 17.54 23.918 17.582 3.625.012 7.254.055 10.875-.035 1.344-.031 2.434.153 3.18 1.367.148.243.394.426.605.63 6.34 6.203 13.864 8.507 22.555 6.675 5.422-1.148 9.797-4.129 13.453-8.222.281-.31.55-.43.961-.426 3.207.015 6.414 0 9.621.015a26.5 26.5 0 0 0 7.285-.972c16.453-4.578 24.867-23.328 17.239-38.832-4.7-9.559-12.555-14.754-23.235-15.489-1.652-.113-3.324.051-5.043.09-2.234-6.183-6.183-11.09-11.926-14.484-5.754-3.403-11.976-4.582-18.578-3.57-12.941 1.984-22.34 12.52-23.304 24.632-5.325-.664-10.414.133-15.204 2.59-4.796 2.465-8.437 6.106-10.93 11.004"/>
    <path style="stroke:none;fill-rule:nonzero;fill:#f8f8ef;fill-opacity:1"
          d="M96.133 28.738c1.32-.008 1.875-.847 2.226-1.894.563-1.676 1.102-3.36 1.653-5.035.386-1.184.777-2.364 1.183-3.586l2.7.882c-.465 1.415-.915 2.79-1.368 4.165-.465 1.421-.925 2.847-1.398 4.265-.977 2.945-3.215 4.149-6.2 3.305a8.5 8.5 0 0 1-1.835-.762c-1.91-1.082-2.805-2.984-2.188-5.082.883-3.031 1.934-6.016 2.918-9.016.012-.035.055-.058.133-.128l2.602.851c-.508 1.555-.996 3.055-1.485 4.55l-1.242 3.794c-.719 2.203-.039 3.324 2.3 3.691m-47.925 4.977c-1.309.527-2.61.738-3.953.406-1.219-.305-2.094-1.05-2.672-2.254l2.508-1.195c.14.183.262.348.383.504.472.617 1.113.926 1.859.73a7.6 7.6 0 0 0 1.883-.77c.672-.398.902-1.046.742-1.644-.191-.734-.715-1.195-1.547-1.207-.746-.012-1.492.137-2.238.145-1.098.011-2.227.125-3.285-.09-2.407-.488-3.469-3.063-2.242-5.164 1.164-1.992 4.09-3.36 6.324-2.926 1.285.25 2.215.984 2.836 2.223l-2.477 1.183c-1.086-1.558-2.5-1.312-3.832-.226-.512.418-.758.984-.508 1.672.242.671.79.906 1.426.89.832-.02 1.656-.152 2.488-.172.93-.023 1.875-.062 2.793.067 1.473.203 2.426 1.136 2.899 2.523.465 1.348.152 2.602-.856 3.555-.726.687-1.652 1.164-2.531 1.75m54.754-1.93c-.148-.933.078-1.738.523-2.61l2.414 1.372c-.558 1.957.286 3.305 2.278 3.738.601.133 1.129.028 1.515-.46.426-.536.551-1.157.164-1.743-.421-.64-.914-1.234-1.41-1.82-.89-1.051-1.797-2.086-2.105-3.489-.438-2.003.988-4.023 3.031-4.132 2.527-.133 4.547.91 5.914 3.039.817 1.265.805 2.625.035 4.023l-2.394-1.351c.46-1.774-.317-2.961-2.125-3.29-.598-.109-1.117.04-1.504.532-.383.484-.39 1.027-.059 1.511.457.665 1.016 1.262 1.48 1.926.66.946 1.462 1.856 1.876 2.91.976 2.5-.973 5.063-3.637 4.825-2.434-.215-4.305-1.45-5.535-3.578-.23-.407-.305-.899-.461-1.403m-29.184-5.808c-.586-1.45-.586-1.438-2.101-1.305-.996.09-1.992.152-2.989.195-.328.016-.484.121-.558.442-.152.668-.36 1.324-.5 1.992-.086.402-.281.543-.68.554-.804.02-1.605.082-2.472.133.699-2.336 1.37-4.605 2.05-6.875.66-2.21 1.336-4.414 1.973-6.633.133-.457.34-.671.82-.609.14.016.29-.008.434-.02 1.566-.101 1.566-.101 2.219 1.348q2.526 5.602 5.047 11.203c.093.207.183.418.32.735-.988.074-1.906.148-2.824.191-.09.004-.223-.16-.282-.277-.16-.336-.293-.688-.457-1.074m-3.703-8.075-1.21 4.645 3.429-.207-2.05-5q-.088.281-.169.562"/>
    <path style="stroke:none;fill-rule:nonzero;fill:#f7f8ef;fill-opacity:1"
          d="M68.754 136.012c-.7 1.906-.7 1.906-2.73 1.441-.391-3.402-.786-6.824-1.192-10.336.668.063 1.27.086 1.848.2.132.027.273.374.293.581.195 2.157.367 4.313.64 6.504.078-.195.168-.386.235-.59.644-1.867 1.297-3.73 1.914-5.605.152-.465.355-.637.847-.508.336.09.7.078 1.133.117l.89 7.106.11.023 2.047-6.8 2.043.21c-.055.215-.082.387-.137.551-.98 2.942-1.972 5.875-2.933 8.82-.14.442-.336.567-.79.524-1.55-.137-1.538-.121-1.73-1.687-.195-1.61-.426-3.215-.648-4.825-.016-.113-.07-.222-.149-.453-.566 1.574-1.129 3.153-1.691 4.727"/>
    <path style="stroke:none;fill-rule:nonzero;fill:#f8f8ef;fill-opacity:1"
          d="m50.875 18.125-.152-.691 10.836-2.778.582 2.215-4.078 1.07c.945 3.715 1.886 7.387 2.832 11.102l-2.747.703-2.847-11.098-4.012 1.008c-.137-.504-.27-.992-.414-1.531m33.367 6.125q-.221 1.881-.449 3.762l-2.813-.328L82.305 16.3l-4.11-.504.246-2.277 11.141 1.304-.258 2.278-4.187-.477q-.45 3.81-.895 7.625"/>
    <path style="stroke:none;fill-rule:nonzero;fill:#f7f8ef;fill-opacity:1"
          d="M62.66 126.602c.653.898.84 1.824.445 2.894l-1.867-.691c.012-1.364-.504-1.993-1.75-2.153-.504-.066-.96.043-1.246.516-.293.492-.14.937.223 1.305.379.382.816.71 1.203 1.082.523.504 1.086.984 1.52 1.558.722.95.75 2.004.171 3.047-.558 1.012-1.5 1.371-2.582 1.309-1.414-.082-2.668-.614-3.672-1.645-.914-.937-1.167-2.125-.675-3.254.297.102.605.2.91.309.312.11.62.23.922.348 0 1.582.476 2.183 1.922 2.449.535.097 1.007.004 1.296-.5.293-.516.215-1.02-.199-1.43-.394-.394-.843-.738-1.254-1.125-.465-.441-.965-.863-1.363-1.363-.7-.88-.902-1.871-.375-2.918.516-1.024 1.434-1.438 2.516-1.438 1.5 0 2.812.508 3.855 1.7m20.953 5.546c-.379-1.562-.746-3.074-1.136-4.664l6.464-1.57c.141.574.262 1.09.399 1.652l-4.399 1.082.614 2.547 3.914-.933.41 1.636-3.91.965.953 4.043-2.031.508zm12.274-5.543 2.883 6.125-1.907.899-3.629-7.691-2.789 1.292-.73-1.535 7.535-3.55.719 1.546-2.817 1.34c.25.535.485 1.031.735 1.574m-17.39 3.793q-.117-1.254-.24-2.503l2.098-.207.942 10.167-2.098.204z"/>
    <path style="stroke:none;fill-rule:nonzero;fill:#f8f1df;fill-opacity:1"
          d="M20.824 76.582c2.469-4.86 6.11-8.5 10.906-10.965 4.79-2.457 9.88-3.254 15.204-2.59.964-12.113 10.363-22.648 23.304-24.632 6.602-1.012 12.825.167 18.578 3.57 5.743 3.394 9.692 8.3 11.926 14.484 1.719-.039 3.39-.203 5.043-.09 10.68.735 18.535 5.93 23.235 15.489 7.628 15.504-.786 34.254-17.239 38.832a26.5 26.5 0 0 1-7.285.972c-3.207-.015-6.414 0-9.621-.015-.41-.004-.68.117-.96.425-3.657 4.094-8.032 7.075-13.454 8.223-8.691 1.832-16.215-.472-22.555-6.676-.21-.203-.457-.386-.605-.629-.746-1.214-1.836-1.398-3.18-1.367-3.621.09-7.25.047-10.875.035-11.078-.043-20.828-7.183-23.918-17.582-1.781-5.988-1.238-11.816 1.496-17.484m40.617 14.047c-.472.785-.933 1.574-1.421 2.351-.282.454-.184.758.265 1.028q5.496 3.287 10.98 6.594c.47.28.79.214 1.075-.274.566-.973 1.16-1.926 1.754-2.879l13.199-21.125c.504-.804 1.008-1.617 1.543-2.472l-3.45-2.157L70.59 95.371c-.238-.137-.434-.246-.625-.363-2.5-1.5-5-3-7.496-4.504-.344-.207-.672-.379-1.028.125"/>
    <path style="stroke:none;fill-rule:nonzero;fill:#10bef5;fill-opacity:1"
          d="M70.086 17.855c.043-.136.07-.23.156-.515l2.051 5-3.43.207c.418-1.606.813-3.125 1.223-4.692"/>
    <path style="stroke:none;fill-rule:nonzero;fill:#359d50;fill-opacity:1"
          d="M61.469 90.59c.328-.465.656-.293 1-.086q3.745 2.255 7.496 4.504c.191.117.387.226.625.363l14.797-23.676 3.449 2.157c-.535.855-1.04 1.668-1.543 2.472q-6.599 10.566-13.2 21.125c-.593.953-1.187 1.906-1.753 2.88-.285.487-.606.554-1.074.273a3887 3887 0 0 0-10.98-6.594c-.45-.27-.548-.574-.266-1.028.488-.777.949-1.566 1.449-2.39"/>
</svg>
